<?xml version="1.0" encoding="UTF-8"?>
<svg version="1.1" xmlns="http://www.w3.org/2000/svg" width="500" height="500">
<path d="M0 0 C165 0 330 0 500 0 C500 165 500 330 500 500 C335 500 170 500 0 500 C0 335 0 170 0 0 Z " fill="#000000" transform="translate(0,0)"/>
<path d="M0 0 C5.63737286 4.7215971 10.01493574 9.65789655 10.8359375 17.21875 C11.05962726 36.7244975 2.27868926 53.83701673 -10.5 68.125 C-11.46555031 69.25499194 -12.42761685 70.38796724 -13.38671875 71.5234375 C-18.88342137 78.02268337 -24.50291172 84.38857727 -30.25390625 90.6640625 C-32.27721629 92.88090654 -34.27303106 95.11684292 -36.25 97.375 C-36.80042969 98.00277344 -37.35085937 98.63054687 -37.91796875 99.27734375 C-38.98384677 100.522184 -40.02796285 101.78595097 -41.05078125 103.06640625 C-44.17459939 106.93283749 -46.77149905 109.21108295 -51.5 111.125 C-52.32494427 108.78264237 -52.64835223 107.54575129 -51.81005859 105.16821289 C-51.42672363 104.4849292 -51.04338867 103.80164551 -50.6484375 103.09765625 C-50.21571533 102.31616211 -49.78299316 101.53466797 -49.3371582 100.72949219 C-48.854646 99.89063477 -48.37213379 99.05177734 -47.875 98.1875 C-47.38153076 97.30868164 -46.88806152 96.42986328 -46.37963867 95.52441406 C-42.69562855 89.032087 -38.78247861 82.69510362 -34.8125 76.375 C-23.4923308 58.28985534 -10.06395491 36.30989985 -13.5 14.125 C-14.50662007 10.85014605 -15.61091846 7.96165928 -18.15625 5.56640625 C-29.01229708 0.39138381 -40.58877248 3.52453368 -51.5 7.125 C-78.53043521 16.85820453 -101.66674939 33.78008615 -123.5 52.125 C-124.51707031 52.95644531 -125.53414063 53.78789063 -126.58203125 54.64453125 C-141.81268703 67.23226009 -157.20232796 81.10461193 -167.5 98.125 C-167.98726562 98.90488281 -168.47453125 99.68476563 -168.9765625 100.48828125 C-172.69687109 107.41007989 -172.87918076 116.04896194 -170.83984375 123.5546875 C-161.54628455 144.23386253 -128.24495514 153.63990791 -109.1860199 161.71279907 C-37.24758935 192.19135389 -37.24758935 192.19135389 -19.5 207.125 C-18.78972656 207.70894531 -18.07945312 208.29289063 -17.34765625 208.89453125 C-11.05908251 214.55011945 -5.98679937 223.70066419 -5.2265625 232.171875 C-4.98347291 241.03529526 -6.28371715 247.8750481 -9.40625 256.17578125 C-10.61590626 258.91328269 -10.61590626 258.91328269 -10.5 261.125 C-8.5399719 262.76176257 -8.5399719 262.76176257 -6.5 264.125 C-7.38921143 264.47389282 -7.38921143 264.47389282 -8.29638672 264.82983398 C-15.67743837 268.07781282 -20.71540201 272.85741407 -26.16864014 278.6468811 C-39.98419584 293.26174843 -54.7771465 304.60687823 -72.5 314.125 C-73.20898438 314.5075293 -73.91796875 314.89005859 -74.6484375 315.28417969 C-88.87643795 322.81551747 -104.05864898 327.70029271 -119.5 332.125 C-120.27529053 332.34881348 -121.05058105 332.57262695 -121.84936523 332.80322266 C-128.59077295 334.53178874 -135.38538334 334.56576223 -142.3125 334.625 C-143.50681641 334.66625 -144.70113281 334.7075 -145.93164062 334.75 C-154.77503705 334.82702468 -161.00638787 332.81745401 -168.5 328.125 C-169.5 327.125 -169.5 327.125 -169.7890625 324.83203125 C-169.21303743 319.43763431 -164.49552185 316.38855985 -160.5 313.125 C-143.61289391 301.37845926 -122.97377323 294.56275198 -103.875 287.25 C-103.16887573 286.9791861 -102.46275146 286.70837219 -101.73522949 286.42935181 C-86.18519785 280.48429762 -70.6659562 275.47827543 -54.42382812 271.72070312 C-41.67439616 268.83232684 -41.67439616 268.83232684 -32.5 260.125 C-27.67681795 250.63422242 -25.82236247 241.01443054 -28.078125 230.40625 C-33.18135197 215.7460707 -47.446544 206.77479568 -60.7434082 200.31347656 C-62.21485717 199.61261226 -63.68833946 198.91600473 -65.16357422 198.22314453 C-66.73105122 197.48641396 -68.2951683 196.74249521 -69.85595703 195.99169922 C-84.18799256 189.10014889 -98.8377193 183.05226734 -113.5625 177.0625 C-115.50732439 176.27099651 -117.45214861 175.47949261 -119.39697266 174.68798828 C-120.34384949 174.3026593 -121.29072632 173.91733032 -122.26629639 173.52032471 C-172.19683227 153.19776229 -172.19683227 153.19776229 -187.5 139.125 C-188.63888672 138.14080078 -188.63888672 138.14080078 -189.80078125 137.13671875 C-196.43883824 131.08116037 -199.51381833 124.53164662 -200.25 115.5625 C-199.79752184 103.03855105 -191.65124508 91.0881855 -183.5 82.125 C-182.84 81.34769531 -182.18 80.57039063 -181.5 79.76953125 C-177.84679634 75.5098387 -174.04128334 71.68635905 -169.7578125 68.06640625 C-167.51339184 66.13651513 -165.33954046 64.14113311 -163.17236328 62.12524414 C-157.48314287 56.83906254 -151.63133786 51.89656535 -145.5 47.125 C-144.23876099 46.11169979 -142.97841915 45.09728235 -141.71875 44.08203125 C-120.75814489 27.32273829 -98.41708909 12.26932723 -73.5 2.125 C-72.57960938 1.74601562 -71.65921875 1.36703125 -70.7109375 0.9765625 C-67.998338 -0.07320511 -65.27001205 -0.98717563 -62.5 -1.875 C-61.87416016 -2.08930664 -61.24832031 -2.30361328 -60.60351562 -2.52441406 C-42.05305838 -8.76285128 -16.94008319 -11.78980149 0 0 Z " fill="#FAFAFA" transform="translate(264.5,59.875)"/>
<path d="M0 0 C4.875 0.875 4.875 0.875 6 2 C5.98228665 11.8298335 4.10783736 21.01333024 1.69140625 30.5 C1.3603772 31.83301743 1.03031421 33.16627509 0.70115662 34.49975586 C-0.15733145 37.96545401 -1.02997701 41.42743192 -1.90551758 44.88885498 C-2.61764763 47.71490663 -3.31918166 50.54353918 -4.02027798 53.37234497 C-4.86266858 56.76999153 -5.71006723 60.16638132 -6.55859375 63.5625 C-6.87324081 64.82191406 -7.18788788 66.08132813 -7.5120697 67.37890625 C-7.80900223 68.55453125 -8.10593475 69.73015625 -8.41186523 70.94140625 C-8.80038918 72.48356812 -8.80038918 72.48356812 -9.19676208 74.05688477 C-9.75519063 76.10300278 -10.39619293 78.1276273 -11.09925842 80.12866211 C-12.19954587 83.13455127 -12.19954587 83.13455127 -12 87 C-11.61368408 86.23671387 -11.22736816 85.47342773 -10.8293457 84.68701172 C24.69060632 14.71695414 24.69060632 14.71695414 43.8359375 6.83203125 C50.15671411 5.1699011 57.78167702 4.81533718 64 7.125 C69.57678554 10.61049096 72.13917798 14.3299726 73.6184082 20.71020508 C74.30039223 24.8025456 74.24706295 28.86194238 74.1875 33 C74.1865332 34.27617187 74.1865332 34.27617187 74.18554688 35.578125 C74.14950855 40.79967726 73.74762084 45.83244477 73 51 C73.89976562 50.76925781 74.79953125 50.53851563 75.7265625 50.30078125 C78.50653727 49.59159649 81.29108828 48.90352261 84.078125 48.22265625 C87.41638071 47.40557714 90.73246046 46.52970049 94.046875 45.62109375 C104.3557963 42.90580179 114.13266991 41.53334132 124.8125 41.5 C125.89128418 41.49387695 126.97006836 41.48775391 128.08154297 41.48144531 C134.08462727 41.57710452 140.76174286 41.70822893 146 45 C146.73754883 47.10742187 146.73754883 47.10742187 147 49 C143.87709365 48.51421457 141.00419641 48.0013988 138 47 C115.55021023 45.03564339 90.76086963 53.9755288 72 66 C71.06220703 66.58201172 71.06220703 66.58201172 70.10546875 67.17578125 C65.18202513 70.76556068 62.58902168 75.85017774 59.62109375 81.03442383 C53.96395078 90.75228116 46.07314726 102.30895091 35 106 C30.74951528 106.41390488 27.04441706 106.36989771 23 104.9375 C20.80827706 102.8142684 19.90338911 101.22830135 19.67578125 98.15234375 C21.38167453 86.8276787 31.74285801 77.67013988 40.23828125 70.99609375 C44.11575116 68.19356599 48.19708686 65.74469508 52.3359375 63.34765625 C56.66414447 59.53350319 58.60102516 55.08103594 59.34033203 49.37182617 C59.46405443 46.59007575 59.44839685 43.84578571 59.375 41.0625 C59.37371094 40.13759766 59.37242187 39.21269531 59.37109375 38.25976562 C59.29169831 31.9654719 58.39792053 26.12456576 57 20 C56.66254513 18.33416294 56.32812639 16.6676996 56 15 C49.25698895 17.82606109 45.7858324 20.97849485 41.5625 26.875 C40.72464966 28.01001953 40.72464966 28.01001953 39.86987305 29.16796875 C34.93525332 35.9224734 30.33806963 42.85050522 26 50 C25.61811523 50.62245605 25.23623047 51.24491211 24.84277344 51.88623047 C5.25960065 83.91904908 -9.50458388 118.46524255 -24.146698 152.94210815 C-27.41222246 160.62858094 -30.69871406 168.30593356 -33.9921875 175.98046875 C-34.50572784 177.17722229 -35.01926819 178.37397583 -35.54837036 179.60699463 C-36.5930555 182.04133945 -37.63778424 184.47566556 -38.68255615 186.90997314 C-47.62945752 207.74925027 -47.62945752 207.74925027 -56.5 228.62109375 C-56.83046326 229.40263321 -57.16092651 230.18417267 -57.50140381 230.98939514 C-58.96896124 234.46198364 -60.43325454 237.9358871 -61.89160156 241.41235352 C-69.03310933 258.35540622 -69.03310933 258.35540622 -73 261 C-75.19140625 261.046875 -75.19140625 261.046875 -77.5625 260.75 C-78.74005859 260.61851562 -78.74005859 260.61851562 -79.94140625 260.484375 C-82 260 -82 260 -84 258 C-84.23444511 251.87381226 -82.23409656 245.98167213 -80.3125 240.25 C-78.11448531 233.61374071 -76.10626509 226.94896489 -74.23461914 220.21411133 C-71.11031614 209.14454388 -67.56500554 198.23600261 -63.93359375 187.32421875 C-63.25894547 185.28612042 -62.58470085 183.24788842 -61.91082764 181.20953369 C-60.12560332 175.81270784 -58.33542383 170.41753856 -56.54424667 165.022686 C-54.6798253 159.40424394 -52.82005471 153.7842634 -50.96020508 148.16430664 C-50.21263283 145.90544075 -49.46505898 143.6465754 -48.71748352 141.38771057 C-48.34864862 140.27320589 -47.97981373 139.15870121 -47.59980202 138.01042366 C-46.48685588 134.64811994 -45.37333626 131.2860066 -44.25968933 127.92393494 C-38.8467678 111.57948399 -33.47302331 95.22253312 -28.12339115 78.85727596 C-16.34488122 42.82756233 -16.34488122 42.82756233 -10.7538147 26.34866333 C-10.26651045 24.911174 -9.78131698 23.47296662 -9.29867554 22.03390503 C-6.72304374 14.36869716 -3.86168717 7.11330993 0 0 Z " fill="#FAFAFA" transform="translate(308,215)"/>
<path d="M0 0 C-1.017335 1.1904984 -2.03912764 2.3771874 -3.0625 3.5625 C-3.63097656 4.22378906 -4.19945312 4.88507813 -4.78515625 5.56640625 C-10.01786882 11.31592994 -15.37130573 16.35233526 -21.75 20.8125 C-22.480979 21.32385498 -23.21195801 21.83520996 -23.96508789 22.36206055 C-44.16109826 36.16912219 -70.88909859 49.31745818 -95.875 49.0625 C-97.02742188 49.05347656 -98.17984375 49.04445313 -99.3671875 49.03515625 C-100.23601562 49.02355469 -101.10484375 49.01195312 -102 49 C-101.69443376 45.88536869 -101.36456999 44.36761441 -99.12890625 42.11328125 C-80.6223017 29.12767288 -23.51116165 -7.29656741 0 0 Z " fill="#050505" transform="translate(220,336)"/>
<path d="M0 0 C0.66 0 1.32 0 2 0 C1.8125 1.8125 1.8125 1.8125 1 4 C-1.5625 5.75 -1.5625 5.75 -4 7 C-2.92598892 4.08482708 -2.22189824 2.22189824 0 0 Z " fill="#1D1D1D" transform="translate(351,303)"/>
</svg>
